<?xml version="1.0" encoding="iso-8859-1"?>
<!-- Generator: Adobe Illustrator 17.0.0, SVG Export Plug-In . SVG Version: 6.00 Build 0)  -->
<!DOCTYPE svg PUBLIC "-//W3C//DTD SVG 1.1//EN" "http://www.w3.org/Graphics/SVG/1.1/DTD/svg11.dtd" [
	<!ENTITY ns_flows "http://ns.adobe.com/Flows/1.0/">
	<!ENTITY ns_extend "http://ns.adobe.com/Extensibility/1.0/">
	<!ENTITY ns_ai "http://ns.adobe.com/AdobeIllustrator/10.0/">
	<!ENTITY ns_graphs "http://ns.adobe.com/Graphs/1.0/">
]>
<svg version="1.1" id="Layer_1" xmlns:x="&ns_extend;" xmlns:i="&ns_ai;" xmlns:graph="&ns_graphs;"
	 xmlns="http://www.w3.org/2000/svg" xmlns:xlink="http://www.w3.org/1999/xlink" xmlns:a="http://ns.adobe.com/AdobeSVGViewerExtensions/3.0/"
	 x="0px" y="0px" width="320px" height="217px" viewBox="0 0 320 217" enable-background="new 0 0 320 217" xml:space="preserve">
<g>
	<g>
		<g opacity="0.78"> 
			<g>
				<g opacity="0.55">
					<g>
						<defs>
							<rect id="SVGID_7_" x="202.518" y="102.282" width="86.674" height="81.252"/>
						</defs>
						<clipPath id="SVGID_2_">
							<use xlink:href="#SVGID_7_"  overflow="visible"/>
						</clipPath>
						<path clip-path="url(#SVGID_2_)" fill="#1CA2AC" d="M261.879,164.221h9.156v9.156h-9.156V164.221z M248.144,164.221h9.156
							v9.156h-9.156V164.221z M234.409,164.221h9.156v9.156h-9.156V164.221z M220.674,164.221h9.156v9.156h-9.156V164.221z
							 M220.674,150.487h9.156v9.156h-9.156V150.487z M220.674,136.752h9.156v9.156h-9.156V136.752z M225.253,113.861h4.578v9.156
							h-4.578V113.861z M234.409,150.487h9.156v9.156h-9.156V150.487z M243.566,145.908h-9.156v-9.156h9.156V145.908z
							 M261.879,113.861h4.578v9.156h-4.578V113.861z M261.879,150.487h9.156v9.156h-9.156V150.487z M248.144,136.752h9.156v9.156
							h-9.156V136.752z M248.144,150.487h9.156v9.156h-9.156V150.487z M271.035,145.908h-9.156v-9.156h9.156V145.908z
							 M271.035,118.439v-9.156H257.3v9.156h-22.891v-9.156h-13.735v9.156h-9.156v64.095h68.673v-64.095H271.035z"/>
					</g>
				</g>
				<g opacity="0.92">
					<g>
						<defs>
							<rect id="SVGID_9_" x="189.499" y="19.393" width="81.627" height="71.626"/>
						</defs>
						<clipPath id="SVGID_4_">
							<use xlink:href="#SVGID_9_"  overflow="visible"/>
						</clipPath>
						<path clip-path="url(#SVGID_4_)" fill="#E92B7B" d="M214.406,58.206h31.813v-3.977h-31.813V58.206z M214.406,50.253h31.813
							v-3.977h-31.813V50.253z M246.219,38.323h-31.813V42.3h31.813V38.323z M214.406,66.16h23.86v-3.977h-23.86V66.16z
							 M206.453,66.16h3.977v-3.977h-3.977V66.16z M210.429,46.277h-3.977v3.977h3.977V46.277z M210.429,54.23h-3.977v3.977h3.977
							V54.23z M210.429,38.323h-3.977V42.3h3.977V38.323z M262.126,72.817l-9.618-1.47l-4.301-9.164l-4.3,9.162l-9.618,1.472
							l6.959,7.132l-1.642,10.071l8.601-4.756l8.602,4.756l-1.642-10.071L262.126,72.817z M202.476,86.043h31.813v3.977h-35.79
							V26.393h55.673v31.813h-3.976V30.37h-47.72V86.043z"/>
					</g>
				</g>
				<path fill="#0D4048" d="M217.947,46.779h-86.481v86.481h86.481V46.779z M225.154,140.466H124.26V39.572h100.894V140.466z
					 M189.12,104.433h-50.447v7.207h50.447V104.433z M210.74,90.019h-72.067v7.207h72.067V90.019z M210.74,75.606h-72.067v7.207
					h72.067V75.606z M210.74,68.399h-72.067v-7.207h72.067V68.399z"/>
				<path fill="#137172" d="M53.898,154.835h58.195v-6.466H53.898V154.835z M53.898,128.97h58.195v-6.466H53.898V128.97z
					 M112.094,96.64H86.229v6.466h25.865V96.64z M53.898,141.903h58.195v-6.466H53.898V141.903z M112.094,109.572H86.229v6.466
					h25.865V109.572z M40.966,174.234h84.06V83.708h-84.06V174.234z M34.5,77.241h96.992v103.458H34.5V77.241z M79.763,116.038
					H53.898V96.64h25.865V116.038z"/>
				<path fill="#32A66D" d="M162.436,68.17h-42.778v-7.13h42.778V68.17z M162.436,53.911h-57.037v-7.13h57.037V53.911z
					 M98.27,25.393h78.426v114.073H84.011V96.688h7.13v35.648h78.425V32.522H98.27V25.393z M102.519,84.59L64.711,46.778
					c-2.784-2.784-2.784-7.297,0-10.081c2.784-2.785,7.297-2.785,10.081,0l37.812,37.811L102.519,84.59z M119.534,91.523
					c2.435-2.435,6.388-2.435,8.823,0c2.435,2.435,2.435,6.385,0,8.823c-2.435,2.438-6.388,2.435-8.823,0
					C117.099,97.908,117.099,93.958,119.534,91.523 M112.597,100.403c0.734,2.923,3.704,6.149,6.591,7.162
					c0,0,14.63,5.493,19.56,7.454l1.644,1.643c1.565,1.565,3.796,1.875,4.98,0.692v-0.004c1.18-1.183,0.87-3.408-0.695-4.973
					l-1.658-1.658c-1.968-4.944-7.443-19.549-7.443-19.549c-1.013-2.884-4.239-5.86-7.162-6.595L116.379,80.8l-3.782,3.782
					l-3.779,3.779L112.597,100.403z"/>
				<g opacity="0.8">
					<g>
						<defs>
							<rect id="SVGID_11_" x="133.79" y="111.288" width="82.247" height="72.246"/>
						</defs>
						<clipPath id="SVGID_6_">
							<use xlink:href="#SVGID_11_"  overflow="visible"/>
						</clipPath>
						<path clip-path="url(#SVGID_6_)" fill="#972960" d="M174.914,182.534c17.741,0,32.123-14.382,32.123-32.123
							s-14.382-32.123-32.123-32.123s-32.123,14.382-32.123,32.123S157.173,182.534,174.914,182.534"/>
					</g>
				</g>
				<path fill="#249B96" d="M192.389,164.919l-13.371-15.6v-20.035h-4.643v21.752l14.486,16.901L192.389,164.919z M176.696,115.355
					c-19.231,0-34.822,15.591-34.822,34.823c0,19.231,15.591,34.822,34.822,34.822s34.823-15.591,34.823-34.822
					C211.519,130.946,195.927,115.355,176.696,115.355 M176.696,119.998c16.641,0,30.18,13.539,30.18,30.18
					c0,16.64-13.539,30.179-30.18,30.179s-30.18-13.539-30.18-30.179C146.516,133.537,160.055,119.998,176.696,119.998"/>
			</g>
		</g>
	</g>
</g>
</svg>
