<?xml version="1.0" encoding="iso-8859-1"?>
<!-- Generator: Adobe Illustrator 17.0.0, SVG Export Plug-In . SVG Version: 6.00 Build 0)  -->
<!DOCTYPE svg PUBLIC "-//W3C//DTD SVG 1.1//EN" "http://www.w3.org/Graphics/SVG/1.1/DTD/svg11.dtd" [
	<!ENTITY ns_flows "http://ns.adobe.com/Flows/1.0/">
	<!ENTITY ns_extend "http://ns.adobe.com/Extensibility/1.0/">
	<!ENTITY ns_ai "http://ns.adobe.com/AdobeIllustrator/10.0/">
	<!ENTITY ns_graphs "http://ns.adobe.com/Graphs/1.0/">
]>
<svg version="1.1" id="Layer_1" xmlns:x="&ns_extend;" xmlns:i="&ns_ai;" xmlns:graph="&ns_graphs;"
	 xmlns="http://www.w3.org/2000/svg" xmlns:xlink="http://www.w3.org/1999/xlink" xmlns:a="http://ns.adobe.com/AdobeSVGViewerExtensions/3.0/"
	 x="0px" y="0px" width="320px" height="217px" viewBox="0 0 320 217" enable-background="new 0 0 320 217" xml:space="preserve">
<g>
	<g>
		<g>
			<g opacity="0.94"> 
				<g>
					<path fill="#1CA3AD" d="M258.518,70.754l-0.12-2.75l-2.538-0.545l0.898,1.623l-1.932,0.297l-1.515-0.068l-1.073,0.853
						l-1.977,0.562l-1.925-0.22l0.751-2.56l1.199-1.673l-0.593-0.919l-1.281-2.318l1.643-1.373l1.628-0.403l0.732-1.43l0.905,0.509
						l0.315-0.799l2.373,0.051c0,0,1.591,0.932,1.771,0.753l0.063-0.717l-0.904,0.138l0.031-0.889l-0.777-0.936l2.495,0.474
						c-0.309-0.308-0.634-0.604-0.996-0.87c-1.722-1.262-3.758-1.787-5.736-1.643c-0.184,0.294-0.48,1.06-0.48,1.06
						s-1.608-0.362-1.918-0.529c-1.278,0.473-2.46,1.239-3.417,2.305c-0.033,0.341-0.11,0.884-0.185,1.367l0.611,1.375l-0.768,2.393
						l-1.859,0.35c-0.094,2.763,1.124,5.525,3.518,7.28C250.886,74.016,255.543,73.592,258.518,70.754 M256.002,63.496l-0.376-1.446
						l-0.57,0.214l-0.482-0.927l-1.857,0.26l1.339,0.692l-0.039,0.614l0.248,1.425l2.792,1.655L256.002,63.496z M257.871,63.852
						l0.511,0.976l-0.324,1.738l1.621-0.726l0.149-2.417L257.871,63.852z M261.879,71.346c-3.768,5.139-10.989,6.25-16.128,2.482
						c-5.139-3.768-6.25-10.988-2.482-16.128c3.768-5.139,10.988-6.25,16.128-2.482C264.536,58.986,265.647,66.207,261.879,71.346
						 M253.286,58.598l0.576-0.901l1.109,0.14l0.527,0.778l-1.066,0.063L253.286,58.598z"/>
					
						<path fill="none" stroke="#FFFFFF" stroke-width="1.526" stroke-linecap="round" stroke-linejoin="round" stroke-dasharray="0,3.017" d="
						M270.138,86.128c10.833-8.987,13.617-24.657,6.335-36.874"/>
					
						<path fill="none" stroke="#FFFFFF" stroke-width="1.526" stroke-linecap="round" stroke-linejoin="round" stroke-dasharray="0,3.017" d="
						M273.865,45.563c-8.987-10.833-24.658-13.617-36.874-6.335"/>
					
						<path fill="none" stroke="#FFFFFF" stroke-width="1.526" stroke-linecap="round" stroke-linejoin="round" stroke-dasharray="0,3.017" d="
						M233.299,41.835c-10.833,8.987-13.617,24.658-6.335,36.874"/>
					
						<path fill="none" stroke="#FFFFFF" stroke-width="1.526" stroke-linecap="round" stroke-linejoin="round" stroke-dasharray="0,3.017" d="
						M229.572,82.402c8.987,10.833,24.658,13.617,36.874,6.335"/>
					<path fill="none" stroke="#FFFFFF" stroke-width="1.526" stroke-linecap="round" stroke-linejoin="round" d="M267.721,87.932
						L267.721,87.932 M227.77,79.984L227.77,79.984 M235.716,40.033L235.716,40.033 M275.668,47.98L275.668,47.98"/>
					<g opacity="0.75">
						<g>
							
								<path fill="none" stroke="#FFFFFF" stroke-width="1.526" stroke-linecap="round" stroke-linejoin="round" stroke-dasharray="0,2.978" d="
								M274.133,92.174c14.157-11.23,17.833-31.395,8.332-46.946"/>
							
								<path fill="none" stroke="#FFFFFF" stroke-width="1.526" stroke-linecap="round" stroke-linejoin="round" stroke-dasharray="0,2.978" d="
								M279.91,41.567c-11.23-14.157-31.395-17.833-46.946-8.332"/>
							
								<path fill="none" stroke="#FFFFFF" stroke-width="1.526" stroke-linecap="round" stroke-linejoin="round" stroke-dasharray="0,2.978" d="
								M229.304,35.79c-14.157,11.23-17.833,31.395-8.332,46.946"/>
							
								<path fill="none" stroke="#FFFFFF" stroke-width="1.526" stroke-linecap="round" stroke-linejoin="round" stroke-dasharray="0,2.978" d="
								M223.527,86.397c11.23,14.157,31.395,17.833,46.946,8.332"/>
							<path fill="none" stroke="#FFFFFF" stroke-width="1.526" stroke-linecap="round" stroke-linejoin="round" d="M271.728,93.928
								L271.728,93.928 M221.774,83.992L221.774,83.992 M231.71,34.037L231.71,34.037 M281.664,43.974L281.664,43.974"/>
						</g>
					</g>
					<g opacity="0.5">
						<g>
							
								<path fill="none" stroke="#FFFFFF" stroke-width="1.526" stroke-linecap="round" stroke-linejoin="round" stroke-dasharray="0,3.064" d="
								M278.043,97.868c17.244-13.367,21.744-37.742,10.181-56.435"/>
							
								<path fill="none" stroke="#FFFFFF" stroke-width="1.526" stroke-linecap="round" stroke-linejoin="round" stroke-dasharray="0,3.064" d="
								M285.605,37.659c-13.367-17.244-37.742-21.744-56.435-10.181"/>
							
								<path fill="none" stroke="#FFFFFF" stroke-width="1.526" stroke-linecap="round" stroke-linejoin="round" stroke-dasharray="0,3.064" d="
								M225.396,30.097c-17.244,13.367-21.744,37.742-10.181,56.435"/>
							
								<path fill="none" stroke="#FFFFFF" stroke-width="1.526" stroke-linecap="round" stroke-linejoin="round" stroke-dasharray="0,3.064" d="
								M217.833,90.306c13.367,17.244,37.742,21.745,56.435,10.181"/>
							<path fill="none" stroke="#FFFFFF" stroke-width="1.526" stroke-linecap="round" stroke-linejoin="round" d="M275.557,99.658
								L275.557,99.658 M216.044,87.821L216.044,87.821 M227.882,28.307L227.882,28.307 M287.395,40.145L287.395,40.145"/>
						</g>
					</g>
					<g opacity="0.25">
						<g>
							
								<path fill="none" stroke="#FFFFFF" stroke-width="1.526" stroke-linecap="round" stroke-linejoin="round" stroke-dasharray="0,3.026" d="
								M282.005,103.865c20.558-15.581,25.95-44.431,12.173-66.434"/>
							
								<path fill="none" stroke="#FFFFFF" stroke-width="1.526" stroke-linecap="round" stroke-linejoin="round" stroke-dasharray="0,3.026" d="
								M291.602,33.697c-15.581-20.558-44.43-25.95-66.434-12.173"/>
							
								<path fill="none" stroke="#FFFFFF" stroke-width="1.526" stroke-linecap="round" stroke-linejoin="round" stroke-dasharray="0,3.026" d="
								M221.433,24.1c-20.558,15.581-25.95,44.43-12.173,66.434"/>
							
								<path fill="none" stroke="#FFFFFF" stroke-width="1.526" stroke-linecap="round" stroke-linejoin="round" stroke-dasharray="0,3.026" d="
								M211.836,94.269c15.582,20.559,44.431,25.95,66.434,12.173"/>
							<path fill="none" stroke="#FFFFFF" stroke-width="1.526" stroke-linecap="round" stroke-linejoin="round" d="M279.541,105.62
								L279.541,105.62 M210.082,91.805L210.082,91.805 M223.898,22.346L223.898,22.346 M293.357,36.162L293.357,36.162"/>
						</g>
					</g>
				</g>
			</g>
			<path fill="#FFFFFF" d="M137.329,57.757c-1.234,0-2.234-0.991-2.234-2.214c0-1.222,1-2.214,2.234-2.214
				c1.234,0,2.234,0.992,2.234,2.214C139.563,56.766,138.563,57.757,137.329,57.757"/>
			<path fill="#1CA3AD" d="M150.929,41.876c0.358-0.799-0.003-1.735-0.81-2.09c-0.807-0.356-1.751,0.004-2.11,0.802
				c-0.358,0.798,0.003,1.734,0.81,2.09C149.626,43.034,150.57,42.674,150.929,41.876 M152.715,39.198l1.946,0.858l3.466-7.713
				l-1.946-0.859L152.715,39.198z M158.553,41.774l1.947,0.858l3.466-7.714l-1.946-0.858L158.553,41.774z M152.289,29.767
				l-1.947-0.859l-3.466,7.714l1.947,0.859L152.289,29.767z M146.451,27.191l-1.946-0.858l-3.466,7.713l1.946,0.859L146.451,27.191z
				 M132.1,50.899l-1.527-3.941l12.899-4.906L132.6,37.256l2.599-5.786l1.947,0.859l5.198-11.571l27.247,12.021l-5.199,11.57
				l1.946,0.859l-2.599,5.785l-14.764-6.513L132.1,50.899z"/>
			<path fill="#FFFFFF" d="M131.235,57.757c1.11,0,2.011-0.892,2.011-1.992c0-1.101-0.901-1.993-2.011-1.993
				c-1.111,0-2.011,0.892-2.011,1.993C129.224,56.865,130.124,57.757,131.235,57.757"/>
			<g opacity="0.54">
				<g>
					<defs>
						<rect id="SVGID_53_" x="92.864" y="50.529" width="22.468" height="12.428"/>
					</defs>
					<clipPath id="SVGID_2_">
						<use xlink:href="#SVGID_53_"  overflow="visible"/>
					</clipPath>
					<path clip-path="url(#SVGID_2_)" fill="#127579" d="M104.098,61.957c-1.234,0-2.234-0.991-2.234-2.214
						c0-1.222,1-2.214,2.234-2.214c1.234,0,2.234,0.992,2.234,2.214C106.332,60.966,105.332,61.957,104.098,61.957"/>
				</g>
			</g>
			<path fill="#1CA3AD" d="M126.724,69.902c0.155-1.1-0.604-2.115-1.693-2.268c-1.09-0.154-2.098,0.614-2.253,1.713
				c-0.155,1.1,0.604,2.116,1.693,2.269C125.561,71.769,126.569,71.002,126.724,69.902"/>
			<path fill="#1CA3AD" d="M80.779,120.295c-0.13-0.928,0.509-1.786,1.429-1.915c0.92-0.129,1.772,0.519,1.902,1.447
				s-0.509,1.786-1.429,1.915C81.761,121.871,80.909,121.223,80.779,120.295"/>
			<path fill="#1CA3AD" d="M112.278,120.296c-0.13-0.928,0.51-1.786,1.43-1.915c0.919-0.129,1.771,0.518,1.901,1.447
				c0.131,0.928-0.509,1.786-1.429,1.915C113.26,121.872,112.409,121.224,112.278,120.296"/>
			<path fill="#1CA3AD" d="M130.106,120.295c-0.13-0.928,0.51-1.786,1.429-1.915c0.92-0.129,1.772,0.519,1.902,1.447
				c0.131,0.928-0.509,1.786-1.429,1.915C131.088,121.871,130.236,121.223,130.106,120.295"/>
			<path fill="#1CA3AD" d="M86.624,120.296c-0.13-0.928,0.509-1.786,1.429-1.915c0.92-0.129,1.772,0.518,1.902,1.447
				c0.13,0.928-0.509,1.785-1.429,1.915C87.606,121.872,86.754,121.224,86.624,120.296"/>
			<path fill="#1CA3AD" d="M127.14,62.055c0.155-1.1-0.604-2.115-1.693-2.268c-1.09-0.154-2.098,0.614-2.253,1.713
				c-0.155,1.1,0.603,2.116,1.693,2.269C125.977,63.922,126.985,63.155,127.14,62.055"/>
			<g opacity="0.54">
				<g>
					<defs>
						<rect id="SVGID_55_" x="119.986" y="53.644" width="14.933" height="23.475"/>
					</defs>
					<clipPath id="SVGID_4_">
						<use xlink:href="#SVGID_55_"  overflow="visible"/>
					</clipPath>
					<path clip-path="url(#SVGID_4_)" fill="#127579" d="M132.396,66.076c0.155-1.1-0.604-2.115-1.693-2.268
						c-1.09-0.154-2.098,0.614-2.253,1.713c-0.155,1.1,0.604,2.116,1.693,2.269C131.233,67.943,132.241,67.176,132.396,66.076"/>
				</g>
			</g>
			<path fill="#1CA3AD" d="M165.161,83.559c0.155-1.1-0.604-2.115-1.693-2.268c-1.09-0.154-2.099,0.614-2.253,1.713
				c-0.155,1.1,0.603,2.116,1.693,2.269S165.006,84.659,165.161,83.559"/>
			<g opacity="0.54">
				<g>
					<defs>
						<rect id="SVGID_57_" x="96.889" y="79.716" width="14.933" height="23.475"/>
					</defs>
					<clipPath id="SVGID_6_">
						<use xlink:href="#SVGID_57_"  overflow="visible"/>
					</clipPath>
					<path clip-path="url(#SVGID_6_)" fill="#127579" d="M109.299,92.149c0.155-1.1-0.604-2.115-1.693-2.268
						c-1.09-0.154-2.098,0.614-2.253,1.713c-0.155,1.1,0.603,2.116,1.693,2.269C108.136,94.016,109.144,93.249,109.299,92.149"/>
				</g>
			</g>
			<path fill="#1CA3AD" d="M148.289,66.076c0.155-1.1-0.603-2.115-1.693-2.268c-1.09-0.154-2.098,0.614-2.253,1.713
				c-0.155,1.1,0.604,2.116,1.693,2.269C147.126,67.943,148.134,67.176,148.289,66.076"/>
			<path fill="#1CA3AD" d="M113.285,98.065c0.155-1.1-0.604-2.115-1.693-2.268c-1.09-0.154-2.099,0.614-2.253,1.713
				c-0.155,1.1,0.603,2.116,1.693,2.269C112.122,99.932,113.13,99.165,113.285,98.065"/>
			<path fill="#1CA3AD" d="M127.269,85.584c0.155-1.1-0.603-2.115-1.693-2.268c-1.09-0.154-2.098,0.614-2.253,1.713
				c-0.155,1.1,0.604,2.116,1.693,2.269C126.106,87.451,127.114,86.684,127.269,85.584"/>
			<path fill="#1CA3AD" d="M78.557,73.924c0.155-1.1-0.604-2.115-1.693-2.268c-1.09-0.154-2.099,0.614-2.253,1.713
				c-0.155,1.1,0.603,2.116,1.693,2.269S78.402,75.024,78.557,73.924"/>
			<path fill="#FFFFFF" d="M139.783,85.584c0.155-1.1-0.604-2.115-1.693-2.268c-1.09-0.154-2.099,0.614-2.253,1.713
				c-0.155,1.1,0.603,2.116,1.693,2.269S139.628,86.684,139.783,85.584"/>
			<g opacity="0.42">
				<g>
					<defs>
						<rect id="SVGID_59_" x="-6.617" y="-15.053" width="148.298" height="87.143"/>
					</defs>
					<clipPath id="SVGID_8_">
						<use xlink:href="#SVGID_59_"  overflow="visible"/>
					</clipPath>
					
						<path clip-path="url(#SVGID_8_)" fill="none" stroke="#1CA3AD" stroke-width="3.012" stroke-linecap="round" stroke-miterlimit="10" d="
						M46.629,50.68l0.171-0.719c0,0-8.042-7.477-10.798-8.436c-3.175-1.106-7.29,0.08-9.107,3.712
						c-0.973,1.945-1.116,5.107,0.935,8.804c1.507,2.717,2.786,3.437,4.154,5.682c0.723,1.187,0.638,3.027,0.638,3.027
						 M46.889,51.235l-3.232-2.278c0,0-2.32-1.856-4.363-2.993c-2.496-1.39-6.392-1.887-8.149,1.051
						c-1.758,2.939,0.539,5.989,1.472,7.118c0.932,1.129,4.102,3.416,5.537,5.619c1.866,2.868-0.466,5.247-0.711,5.436
						 M50.825,56.25l-5.816-5.054c0,0-7.065-5.945-9.585-2.8c-2.343,2.924,2.858,5.88,4.925,7.363
						c1.851,1.327,5.114,3.965,2.652,9.429"/>
					<path clip-path="url(#SVGID_8_)" fill="#1CA3AD" d="M33.328,61.992c0.838,0.729,0.925,1.993,0.198,2.83
						c-0.727,0.837-1.992,0.927-2.83,0.198c-0.835-0.726-0.925-1.994-0.198-2.83C31.225,61.353,32.493,61.266,33.328,61.992"/>
					<path clip-path="url(#SVGID_8_)" fill="#1CA3AD" d="M39.028,64.289c0.837,0.728,0.926,1.996,0.199,2.831
						c-0.727,0.837-1.994,0.924-2.831,0.197c-0.835-0.726-0.924-1.992-0.196-2.829C36.926,63.653,38.193,63.563,39.028,64.289"/>
					<path clip-path="url(#SVGID_8_)" fill="#1CA3AD" d="M44.828,66.98c-0.726,0.835-1.995,0.924-2.83,0.198
						c-0.835-0.726-0.924-1.995-0.198-2.83c0.726-0.835,1.995-0.924,2.83-0.198C45.465,64.876,45.555,66.145,44.828,66.98"/>
					<path clip-path="url(#SVGID_8_)" fill="#1CA3AD" d="M54.768,54.05c1.229,1.068,1.359,2.928,0.291,4.156
						c-1.068,1.229-2.928,1.359-4.157,0.291l-6.15-5.346c-1.229-1.068-1.359-2.928-0.291-4.157c1.068-1.228,2.928-1.358,4.157-0.29
						L54.768,54.05z"/>
					<path clip-path="url(#SVGID_8_)" fill="#1CA3AD" d="M94.825,42.69c-0.434-4.125-4.129-7.117-8.253-6.683
						c-1.018,0.107-1.966,0.413-2.811,0.875c-0.468-0.458-0.999-0.845-1.57-1.168c0.63-1.245,0.926-2.676,0.77-4.167
						c-0.434-4.125-4.129-7.117-8.254-6.684c-4.124,0.434-7.117,4.129-6.683,8.254c0.264,2.513,1.742,4.6,3.788,5.754
						c-0.584,1.158-0.881,2.477-0.792,3.857c-3.438,0.985-5.781,4.316-5.394,7.995c0.433,4.125,4.128,7.117,8.253,6.684
						c4.023-0.423,6.96-3.95,6.7-7.951c0.535-0.154,1.046-0.358,1.521-0.618c1.544,1.511,3.725,2.349,6.042,2.105
						C92.266,50.51,95.259,46.815,94.825,42.69"/>
					<path clip-path="url(#SVGID_8_)" fill="#7BCCD4" d="M71.842,48.576c-1.137,0.459-1.685,1.751-1.226,2.888
						c0.459,1.137,1.751,1.685,2.888,1.226s1.685-1.751,1.226-2.888C74.271,48.665,72.979,48.117,71.842,48.576"/>
					<path clip-path="url(#SVGID_8_)" fill="#7BCCD4" d="M85.015,33.804l1.662,4.114c2.538-0.469,5.146,0.893,6.15,3.376
						c1.146,2.836-0.229,6.074-3.065,7.22c-2.836,1.146-5.974,0.021-9.693-3.262c-0.395,4.945-1.869,7.933-4.706,9.079
						c-2.836,1.146-6.074-0.228-7.22-3.064c-1.003-2.483-0.073-5.275,2.078-6.701l-1.662-4.113
						c-4.408,2.384-6.453,7.715-4.53,12.476c2.066,5.112,7.888,7.58,12.996,5.516c2.925-1.181,4.942-3.609,5.783-6.414
						c2.554,1.434,5.691,1.779,8.616,0.597c5.11-2.065,7.582-7.884,5.517-12.996C95.017,34.871,89.845,32.456,85.015,33.804"/>
					<path clip-path="url(#SVGID_8_)" fill="#7BCCD4" d="M70.928,22.625c-4.544,1.836-6.74,7.006-4.904,11.552
						c1.836,4.544,7.009,6.74,11.552,4.904c4.544-1.836,6.74-7.009,4.904-11.552C80.643,22.983,75.472,20.789,70.928,22.625
						 M71.759,24.682c3.403-1.375,7.289,0.275,8.664,3.678c1.375,3.402-0.275,7.289-3.678,8.664
						c-3.402,1.375-7.289-0.275-8.664-3.678C66.707,29.943,68.356,26.057,71.759,24.682"/>
					<path clip-path="url(#SVGID_8_)" fill="#7BCCD4" d="M70.928,22.626c0,0,6.607-3.293,11.109,2.078
						c4.714,5.624,5.862,6.256,6.924,7.023c1.063,0.767,3.014,1.537,5.148,0.776c1.641,3.442-9.27,10.673-13.25,2.86
						c-0.94-1.611,0.664-3.36,0.395-4.945C80.465,25.752,71.364,29.628,70.928,22.626"/>
					<path clip-path="url(#SVGID_8_)" fill="#7BCCD4" d="M70.972,22.608c0,0-7.041,2.221-6.548,9.211
						c0.516,7.321,0.129,8.573-0.102,9.863c-0.232,1.29-1.1,3.199-3.164,4.134c1.211,3.616,14.083,1.238,11.518-7.147
						c-0.443-1.812-2.856-1.938-3.764-3.265C66.239,31.5,75.478,27.966,70.972,22.608"/>
					<path clip-path="url(#SVGID_8_)" fill="#7BCCD4" d="M89.636,46.414c1.136-0.459,1.686-1.752,1.226-2.889
						c-0.458-1.132-1.752-1.683-2.888-1.224s-1.685,1.754-1.226,2.886C87.207,46.324,88.5,46.873,89.636,46.414"/>
				</g>
			</g>
			<g opacity="0.47">
				<g>
					<defs>
						<rect id="SVGID_61_" x="15.703" y="79.664" width="153.895" height="107.656"/>
					</defs>
					<clipPath id="SVGID_10_">
						<use xlink:href="#SVGID_61_"  overflow="visible"/>
					</clipPath>
					<path clip-path="url(#SVGID_10_)" fill="#104754" d="M38.292,168.203h-4.529v4.531
						C33.763,170.226,35.791,168.203,38.292,168.203 M38.292,113.843h-4.529v4.532C33.763,115.875,35.791,113.843,38.292,113.843
						 M38.292,141.023h-4.529v4.531C33.763,143.047,35.791,141.023,38.292,141.023 M151.538,159.14h-9.059v-9.054v-4.532
						c0-2.507,2.028-4.531,4.529-4.531h-4.529h9.059h-4.53c2.502,0,4.53,2.024,4.53,4.531v4.532V159.14z M151.538,131.961h-9.059
						v-9.055v-4.531c0-2.5,2.028-4.532,4.529-4.532h-4.529h9.059h-4.53c2.502,0,4.53,2.032,4.53,4.532V131.961z M151.538,104.781
						h-9.06v-9.055h9.06V104.781z M133.419,159.14h-9.059v-9.054v-4.532c0-2.507,2.028-4.531,4.529-4.531h-4.529h9.059h-4.53
						c2.502,0,4.53,2.024,4.53,4.531v4.532V159.14z M133.419,131.961h-9.059v-9.055v-4.531c0-2.5,2.028-4.532,4.529-4.532h-4.529
						h9.059h-4.53c2.502,0,4.53,2.032,4.53,4.532V131.961z M115.3,159.14h-9.06v-9.054v-4.532c0-2.507,2.028-4.531,4.53-4.531h-4.53
						h9.06h-4.53c2.502,0,4.53,2.024,4.53,4.531v4.532V159.14z M115.3,131.961h-9.06v-9.055v-4.531c0-2.5,2.028-4.532,4.53-4.532
						h-4.53h9.06h-4.53c2.502,0,4.53,2.032,4.53,4.532v4.531V131.961z M115.3,104.781h-9.061v-9.055h9.061V104.781z M97.18,159.14
						h-9.06v-9.054v-4.532c0-2.507,2.029-4.531,4.531-4.531H88.12h9.06h-4.529c2.502,0,4.529,2.024,4.529,4.531v4.532V159.14z
						 M97.18,131.961h-9.06v-9.055v-4.531c0-2.5,2.029-4.532,4.531-4.532H88.12h9.06h-4.529c2.502,0,4.529,2.032,4.529,4.532v4.531
						V131.961z M79.061,159.14h-9.06v-9.054v-4.532c0-2.507,2.029-4.531,4.531-4.531h-4.531h9.06h-4.529
						c2.502,0,4.529,2.024,4.529,4.531v4.532V159.14z M79.061,131.961h-9.06v-9.055v-4.531c0-2.5,2.029-4.532,4.531-4.532h-4.531
						h9.06h-4.529c2.502,0,4.529,2.032,4.529,4.532v4.531V131.961z M79.061,104.781h-9.06v-9.055h9.06V104.781z M60.942,159.14
						h-9.06v-9.054v-4.532c0-2.507,2.028-4.531,4.529-4.531h-4.529h9.06h-4.531c2.503,0,4.531,2.024,4.531,4.531v4.532V159.14z
						 M60.942,131.961h-9.06v-9.055v-4.531c0-2.5,2.028-4.532,4.529-4.532h-4.529h9.06h-4.531c2.503,0,4.531,2.032,4.531,4.532
						v4.531V131.961z M42.823,159.14h-9.06v-9.054v-9.063h9.06h-4.531c2.502,0,4.53,2.024,4.531,4.524v4.539V159.14z
						 M42.823,131.961h-9.06v-9.055v-9.063h9.06h-4.531c2.502,0,4.53,2.024,4.531,4.532v4.531V131.961z M42.823,104.781h-9.06
						v-9.055h9.06V104.781z M160.598,186.32v-9.063v-27.171V86.664h-27.179H33.763h-9.06v9.062v9.055v72.476v9.063h9.06v-9.063
						v-9.054h9.06h-4.531c2.502,0,4.53,2.023,4.531,4.523v4.531v9.063h9.059v-9.063v-4.523c0-2.508,2.028-4.531,4.529-4.531h-4.529
						h9.06h-4.531c2.503,0,4.531,2.023,4.531,4.531v4.523v9.063h9.059v-9.063v-4.523c0-2.508,2.029-4.531,4.531-4.531h-4.531h9.06
						h-4.529c2.502,0,4.529,2.023,4.529,4.531v4.523v9.063h9.059v-9.063v-4.523c0-2.508,2.029-4.531,4.531-4.531H88.12h9.06h-4.529
						c2.502,0,4.529,2.023,4.529,4.531v4.523v9.063h9.06v-9.063v-4.523c0-2.508,2.028-4.531,4.53-4.531h-4.53h9.06h-4.53
						c2.502,0,4.53,2.023,4.53,4.531v4.523v9.063h9.06v-9.063v-4.523c0-2.508,2.028-4.531,4.529-4.531h-4.529h9.059h-4.53
						c2.502,0,4.53,2.023,4.53,4.531v4.523v9.063h9.06v-9.063v-4.523c0-2.508,2.028-4.531,4.529-4.531h-4.529h9.059h-4.53
						c2.502,0,4.53,2.023,4.53,4.531v4.523v9.063H160.598z"/>
				</g>
			</g>
			<path fill="#127579" d="M297.928,197.5c6.495,0,12.997-4.797,9.282-12.347c-0.382,4.389-2.45,5.425-3.258,4.545
				c-1.029-1.346,4.7-6.543-1.824-9.189c0.914,0.904,0.254,7.118-1.394,6.1c-2.314-1.657-2.096-7.829-0.39-9.61
				c-6.343,1.859-3.391,12.173-5.912,12.173c-3.15-1.282,1.144-9.424-3.215-10.159c1.325,2.471-0.535,3.204-2.005,6.14
				C286.237,191.094,289.485,197.5,297.928,197.5"/>
			<g opacity="0.76">
				<g>
					<defs>
						<rect id="SVGID_63_" x="158.156" y="40.54" width="46.157" height="43.217"/>
					</defs>
					<clipPath id="SVGID_12_">
						<use xlink:href="#SVGID_63_"  overflow="visible"/>
					</clipPath>
					<path clip-path="url(#SVGID_12_)" fill="#1CA3AD" d="M175.047,58.236l6.795,0.985l4.827-4.995l0.975,6.717l6.177,2.865
						l-6.193,3.165l-1.01,6.766l-4.801-4.761l-6.801,1.317l3.225-6.108L175.047,58.236z M179.436,61.311l0.931,1.735l0.608,1.132
						l-0.6,1.136l-0.873,1.654l1.857-0.359l1.252-0.243l0.905,0.898l1.419,1.407l0.307-2.054l0.183-1.228l1.105-0.565l1.783-0.911
						l-1.684-0.78l-1.186-0.55l-0.187-1.293l-0.269-1.85l-1.41,1.458l-0.858,0.889l-1.223-0.178L179.436,61.311z"/>
				</g>
			</g>
			<g opacity="0.34">
				<g>
					<defs>
						<rect id="SVGID_65_" x="171.284" y="75.503" width="39.481" height="36.541"/>
					</defs>
					<clipPath id="SVGID_14_">
						<use xlink:href="#SVGID_65_"  overflow="visible"/>
					</clipPath>
					<path clip-path="url(#SVGID_14_)" fill="#1CA3AD" d="M186.792,91.467l5.097,0.74l3.62-3.747l0.731,5.038l4.633,2.149
						l-4.645,2.374l-0.757,5.074l-3.601-3.571l-5.101,0.988l2.419-4.581L186.792,91.467z M190.084,93.774l0.698,1.301l0.456,0.849
						l-0.45,0.852l-0.655,1.241l1.393-0.27l0.939-0.182l0.679,0.674l1.064,1.055l0.23-1.541l0.138-0.92l0.829-0.424l1.336-0.683
						l-1.262-0.586l-0.89-0.412l-0.14-0.97l-0.202-1.388l-1.057,1.094l-0.644,0.667l-0.917-0.133L190.084,93.774z"/>
				</g>
			</g>
			<g opacity="0.34">
				<g>
					<defs>
						<rect id="SVGID_67_" x="152.479" y="79.446" width="32.473" height="29.236"/>
					</defs>
					<clipPath id="SVGID_16_">
						<use xlink:href="#SVGID_67_"  overflow="visible"/>
					</clipPath>
					<path clip-path="url(#SVGID_16_)" fill="#1CA3AD" d="M166.65,93.736l3.324,0.302l2.498-2.469l0.319,3.143l2.975,1.202
						l-3.126,1.64l-0.66,3.213l-2.251-2.129l-3.382,0.783l1.735-2.956L166.65,93.736z M168.739,95.081l0.417,0.796l0.273,0.519
						l-0.323,0.549l-0.47,0.801l0.924-0.214l0.622-0.144l0.425,0.402l0.665,0.629l0.2-0.976l0.12-0.583l0.558-0.293l0.9-0.471
						l-0.811-0.328l-0.571-0.231l-0.061-0.605l-0.089-0.866l-0.729,0.721l-0.444,0.44l-0.598-0.055L168.739,95.081z"/>
				</g>
			</g>
			<path fill="#1CA3AD" d="M277.823,117.813l1.999,5.512c0.266,0.734,0.177,1.559-0.24,2.232l0.582,0.202
				c1.067,0.371,2.261-0.048,2.9-1.017l0.349-0.528c-0.719-0.275-1.263-0.878-1.471-1.632l-1.565-5.664L277.823,117.813z"/>
			<path fill="#1CA3AD" d="M274.001,116.286l1.277-0.448c0.765,1.366,2.409,2.023,3.95,1.482c1.542-0.54,2.478-2.101,2.306-3.674
				l1.277-0.448c0.384,2.294-0.922,4.623-3.172,5.412C277.39,119.398,275.01,118.36,274.001,116.286"/>
			<path fill="#FFFFFF" d="M273.077,102.787c-0.114-0.411-0.172-0.838-0.175-1.274l-0.024-3.886l2.209,3.12
				c0.248,0.35,0.446,0.729,0.591,1.128l4.756,13.109c-0.419,0.446-0.966,0.82-1.617,1.047c-0.705,0.248-1.412,0.284-2.04,0.157
				L273.077,102.787z"/>
			<path fill="#1CA3AD" d="M292.47,107.464c-0.912-0.592-2.13-0.341-2.715,0.561c-0.585,0.901-0.321,2.116,0.591,2.709
				c0.913,0.592,2.13,0.34,2.716-0.562C293.647,109.271,293.382,108.056,292.47,107.464 M289.467,112.088
				c-1.667-1.083-2.154-3.305-1.084-4.954c1.071-1.648,3.299-2.108,4.966-1.025c1.669,1.084,2.155,3.305,1.084,4.954
				C293.363,112.712,291.136,113.172,289.467,112.088"/>
			<path fill="#1CA3AD" d="M292.508,117.291l2.609,6.569l-2.554,1.743c-0.239,0.151-0.41,0.65-0.447,1.038l-0.438,4.919
				c-0.04,0.445,0.306,0.871,0.764,0.917c0.224,0.023,0.443-0.044,0.618-0.184c0.171-0.143,0.277-0.344,0.296-0.567l0.434-4.893
				l4.37-3.348l0.443,0.893c1.371,2.75,1.375,2.759,1.391,2.796c0.253,0.654,0.57,1.003,0.995,0.957l4.93-0.536
				c0.228-0.024,0.428-0.133,0.565-0.306c0.14-0.175,0.203-0.393,0.175-0.619c-0.05-0.384-0.226-0.818-0.934-0.739l-4.274,0.459
				l-0.231-0.583c0,0-3.677-9.31-3.768-9.53l-0.541-1.332l4.79,0.789l1.961,2.855c1.02,1.322,1.505,1.405,1.655,1.38
				c0.209-0.037,0.484-0.129,0.595-0.362c0.103-0.218,0.061-0.526-0.119-0.847l-2.966-4.187c-2.653-0.783-5.527-1.606-6.709-1.91
				c-1.026,1.462-2.659,2.34-4.462,2.408l-3.552,4.871l-2.554-1.659c-0.391-0.254-0.914-0.146-1.165,0.24
				c-0.25,0.386-0.136,0.907,0.255,1.161l3.835,2.491L292.508,117.291z M291.182,133.701c-0.777-0.505-1.208-1.386-1.127-2.301
				l0.438-4.924c0.037-0.38,0.226-1.65,1.171-2.232l1.462-1l-1.109-2.791l-3.198,3.872l-5.059-3.285
				c-1.147-0.745-1.481-2.274-0.745-3.407c0.737-1.134,2.269-1.45,3.415-0.705l1.255,0.815l3.138-4.309l0.431,0.017
				c1.473,0.05,2.821-0.638,3.606-1.847l0.386-0.739l0.555,0.072c0.728,0.093,6.584,1.819,7.749,2.162l0.275,0.081l3.343,4.729
				c0.484,0.862,0.548,1.71,0.217,2.404c-0.315,0.667-0.947,1.111-1.774,1.254c-0.993,0.17-2.084-0.503-3.264-2.037l-1.591-2.31
				l-1.269-0.211c0.47,1.186,1.353,3.421,3.017,7.634l3.028-0.324c1.301-0.142,2.586,0.878,2.746,2.176
				c0.077,0.657-0.104,1.3-0.514,1.811c-0.41,0.511-0.996,0.831-1.652,0.901l-4.93,0.537c-0.527,0.057-1.037-0.065-1.476-0.351
				c-0.516-0.334-0.939-0.899-1.226-1.632c-0.018-0.036-0.509-1.019-0.889-1.783l-2.24,1.717l-0.372,4.19
				c-0.058,0.656-0.368,1.246-0.875,1.662c-0.507,0.416-1.151,0.609-1.808,0.544C291.9,134.051,291.514,133.916,291.182,133.701"/>
			<path fill="#1CA3AD" d="M53.156,95.079c-0.131-0.928,0.509-1.786,1.429-1.915c0.92-0.129,1.771,0.519,1.902,1.447
				c0.13,0.928-0.51,1.786-1.429,1.915C54.138,96.656,53.286,96.007,53.156,95.079"/>
			<g opacity="0.54">
				<g>
					<defs>
						<rect id="SVGID_69_" x="28.034" y="104.196" width="14.231" height="22.768"/>
					</defs>
					<clipPath id="SVGID_18_">
						<use xlink:href="#SVGID_69_"  overflow="visible"/>
					</clipPath>
					<path clip-path="url(#SVGID_18_)" fill="#127579" d="M30.513,116.232c-0.13-0.928,0.509-1.786,1.429-1.915
						c0.92-0.129,1.772,0.519,1.902,1.447s-0.509,1.786-1.429,1.915C31.495,117.808,30.643,117.16,30.513,116.232"/>
				</g>
			</g>
			<path fill="#1CA3AD" d="M67.274,93.595c-0.131-0.928,0.509-1.786,1.429-1.915c0.92-0.129,1.771,0.519,1.902,1.447
				c0.13,0.928-0.509,1.786-1.429,1.915C68.256,95.172,67.404,94.523,67.274,93.595"/>
			<path fill="#1CA3AD" d="M73.237,99.558c-0.131-0.928,0.509-1.786,1.429-1.915c0.92-0.129,1.771,0.519,1.902,1.447
				c0.13,0.928-0.509,1.786-1.429,1.915C74.219,101.134,73.367,100.486,73.237,99.558"/>
			<path fill="#1CA3AD" d="M28.905,123.685c-0.131-0.928,0.51-1.786,1.429-1.915c0.92-0.129,1.771,0.519,1.902,1.447
				c0.13,0.928-0.509,1.786-1.429,1.915C29.887,125.261,29.035,124.613,28.905,123.685"/>
			<path fill="#1CA3AD" d="M25.124,127.466c-0.131-0.928,0.509-1.786,1.429-1.915c0.92-0.129,1.771,0.519,1.902,1.447
				c0.13,0.928-0.509,1.786-1.429,1.915C26.106,129.042,25.254,128.394,25.124,127.466"/>
			<path fill="#1CA3AD" d="M26.392,151.192c-0.131-0.928,0.509-1.786,1.429-1.915c0.92-0.129,1.771,0.519,1.902,1.447
				c0.13,0.928-0.509,1.786-1.429,1.915C27.374,152.768,26.522,152.12,26.392,151.192"/>
			<g opacity="0.54">
				<g>
					<defs>
						<rect id="SVGID_71_" x="23.061" y="121.661" width="14.231" height="22.768"/>
					</defs>
					<clipPath id="SVGID_20_">
						<use xlink:href="#SVGID_71_"  overflow="visible"/>
					</clipPath>
					<path clip-path="url(#SVGID_20_)" fill="#127579" d="M25.54,133.697c-0.13-0.928,0.51-1.786,1.429-1.915
						c0.92-0.129,1.772,0.519,1.902,1.447c0.131,0.928-0.509,1.786-1.429,1.915S25.671,134.625,25.54,133.697"/>
				</g>
			</g>
			<g opacity="0.54">
				<g>
					<defs>
						<rect id="SVGID_73_" x="23.061" y="149.19" width="14.231" height="22.768"/>
					</defs>
					<clipPath id="SVGID_22_">
						<use xlink:href="#SVGID_73_"  overflow="visible"/>
					</clipPath>
					<path clip-path="url(#SVGID_22_)" fill="#127579" d="M25.54,161.225c-0.13-0.928,0.509-1.786,1.429-1.915
						s1.772,0.519,1.902,1.447c0.13,0.928-0.51,1.786-1.429,1.915C26.522,162.801,25.67,162.154,25.54,161.225"/>
				</g>
			</g>
			<path fill="#1CA3AD" d="M59.187,88.177c-0.13-0.928,0.51-1.786,1.429-1.915c0.92-0.129,1.772,0.519,1.902,1.447
				c0.131,0.928-0.509,1.786-1.429,1.915C60.168,89.753,59.317,89.105,59.187,88.177"/>
			<g opacity="0.54">
				<g>
					<defs>
						<rect id="SVGID_75_" x="44.471" y="75.188" width="14.231" height="22.768"/>
					</defs>
					<clipPath id="SVGID_24_">
						<use xlink:href="#SVGID_75_"  overflow="visible"/>
					</clipPath>
					<path clip-path="url(#SVGID_24_)" fill="#127579" d="M46.95,87.223c-0.131-0.928,0.509-1.786,1.429-1.915
						c0.92-0.129,1.771,0.519,1.902,1.447c0.13,0.928-0.51,1.786-1.429,1.915C47.932,88.799,47.08,88.151,46.95,87.223"/>
				</g>
			</g>
			<path fill="#1CA3AD" d="M21.017,123.685c-0.131-0.928,0.51-1.786,1.429-1.915c0.92-0.129,1.772,0.519,1.902,1.447
				c0.131,0.928-0.509,1.786-1.429,1.915C21.999,125.261,21.147,124.613,21.017,123.685"/>
		</g>
		
			<rect x="52.65" y="112.649" transform="matrix(-0.1822 -0.9833 0.9833 -0.1822 -47.4529 218.7391)" fill="#124C53" width="29.172" height="32.907"/>
		
			<rect x="59.466" y="151.752" transform="matrix(-0.1822 -0.9833 0.9833 -0.1822 -65.8521 251.8208)" fill="#124C53" width="24.657" height="3.087"/>
		
			<rect x="103.812" y="110.646" transform="matrix(0.0436 -0.999 0.999 0.0436 -13.7752 237.6518)" fill="#1CA3AD" width="26.86" height="30.749"/>
		
			<rect x="101.503" y="148.744" transform="matrix(0.0436 -0.999 0.999 0.0436 -38.8558 259.9854)" fill="#1CA3AD" width="29.726" height="3.087"/>
		<g>
			<path fill="#1CA3AD" d="M93.858,148.382c0,0.304-0.247,0.55-0.55,0.55c-0.304,0-0.55-0.246-0.55-0.55
				c0-0.303,0.246-0.55,0.55-0.55C93.611,147.832,93.858,148.079,93.858,148.382 M99.343,150.457c-0.46-1.7-5.768-3.762-5.88-4.208
				c-0.111-0.446,0.404-2.173,0.404-2.173c-1.337,0.669-2.006,2.006-2.006,2.006c-2.884,0.251-5.147,8.268-6.353,9.112
				c-1.592,1.114-7.062-0.324-10.338-1.142c-4.173-1.043-4.837,2.376-5.227,1.958s-2.124-2.095-3.676-1.271
				c-2.784,1.477-1.233,4.655-0.447,7.799c0.55,2.2-1.787,3.849-1.787,3.849s2.339-0.04,3.115-0.962
				c1.69-2.006,0.509-4.799,0.871-6.666c0.362-1.867,1.717-1.586,1.717-1.586s-0.167,2.396,0.39,4.681
				c0.557,2.285-1.505,5.35-1.505,5.35l-0.052,7.017h1.099c0,0-0.029-6.161,1.336-6.78c2.478-1.123,4.643-4.353,4.643-4.353
				s3.254,1.057,5.43,1.237c2.06,0.17,7.283-0.595,7.283-0.595v10.491h1.1l0.274-2.852c0,0,0.338-4.013,1.657-8.152
				c0.309-0.971,0.744-1.918,1.097-2.882c0.717-1.954,0.897-7.742,1.301-8.105l3.127-0.412
				C97.919,152.793,99.803,152.157,99.343,150.457"/>
			<path fill="#127579" d="M80.454,156.067c0,0.304-0.247,0.55-0.55,0.55c-0.304,0-0.55-0.246-0.55-0.55
				c0-0.303,0.246-0.55,0.55-0.55C80.207,155.517,80.454,155.764,80.454,156.067 M85.939,158.142c-0.46-1.7-5.768-3.762-5.88-4.208
				c-0.111-0.446,0.404-2.173,0.404-2.173c-1.337,0.669-2.006,2.006-2.006,2.006c-2.884,0.251-5.147,8.268-6.353,9.112
				c-1.592,1.114-7.062-0.324-10.338-1.142c-4.173-1.043-4.837,2.376-5.227,1.958s-2.124-2.095-3.676-1.271
				c-2.784,1.477-1.233,4.655-0.447,7.799c0.55,2.2-1.787,3.849-1.787,3.849s2.339-0.04,3.115-0.962
				c1.69-2.006,0.509-4.799,0.871-6.666c0.362-1.867,1.717-1.586,1.717-1.586s-0.167,2.396,0.39,4.681
				c0.557,2.285-1.505,5.35-1.505,5.35l-0.052,7.017h1.099c0,0-0.029-6.162,1.336-6.78c2.478-1.123,4.643-4.353,4.643-4.353
				s3.254,1.057,5.43,1.237c2.06,0.17,7.283-0.595,7.283-0.595v10.491h1.1l0.274-2.852c0,0,0.338-4.013,1.657-8.152
				c0.309-0.971,0.744-1.918,1.097-2.882c0.717-1.954,0.897-7.742,1.301-8.105l3.127-0.412
				C84.515,160.478,86.399,159.842,85.939,158.142"/>
			<path fill="#7BCCD4" d="M67.094,163.695c0,0.304-0.247,0.55-0.55,0.55c-0.304,0-0.55-0.246-0.55-0.55
				c0-0.303,0.246-0.55,0.55-0.55C66.847,163.145,67.094,163.392,67.094,163.695 M72.579,165.77c-0.46-1.7-5.768-3.762-5.88-4.208
				c-0.111-0.446,0.404-2.173,0.404-2.173c-1.337,0.669-2.006,2.006-2.006,2.006c-2.884,0.251-5.147,8.268-6.353,9.112
				c-1.592,1.114-7.062-0.324-10.338-1.142c-4.173-1.043-4.837,2.376-5.227,1.958c-0.39-0.418-2.124-2.095-3.676-1.271
				c-2.784,1.477-1.233,4.655-0.447,7.799c0.55,2.2-1.787,3.849-1.787,3.849s2.339-0.04,3.115-0.962
				c1.69-2.006,0.509-4.799,0.871-6.666c0.362-1.867,1.717-1.586,1.717-1.586s-0.168,2.396,0.39,4.681
				c0.557,2.285-1.505,5.35-1.505,5.35l-0.052,7.017h1.099c0,0-0.029-6.162,1.336-6.78c2.478-1.123,4.643-4.353,4.643-4.353
				s3.254,1.057,5.43,1.237c2.06,0.17,7.283-0.595,7.283-0.595v10.491h1.1l0.274-2.852c0,0,0.338-4.013,1.657-8.152
				c0.309-0.971,0.744-1.918,1.097-2.882c0.717-1.954,0.897-7.742,1.301-8.105l3.127-0.412
				C71.155,168.106,73.039,167.47,72.579,165.77"/>
			<path fill="#127579" d="M124.364,148.382c0,0.304-0.247,0.55-0.55,0.55c-0.304,0-0.55-0.246-0.55-0.55
				c0-0.303,0.246-0.55,0.55-0.55C124.117,147.832,124.364,148.079,124.364,148.382 M129.849,150.457
				c-0.46-1.7-5.768-3.762-5.88-4.208c-0.111-0.446,0.404-2.173,0.404-2.173c-1.337,0.669-2.006,2.006-2.006,2.006
				c-2.884,0.251-5.147,8.268-6.353,9.112c-1.592,1.114-7.062-0.324-10.338-1.142c-4.173-1.043-4.837,2.376-5.227,1.958
				s-2.124-2.095-3.676-1.271c-2.784,1.477-1.233,4.655-0.447,7.799c0.55,2.2-1.787,3.849-1.787,3.849s2.339-0.04,3.115-0.962
				c1.69-2.006,0.509-4.799,0.871-6.666c0.362-1.867,1.717-1.586,1.717-1.586s-0.167,2.396,0.39,4.681
				c0.557,2.285-1.505,5.35-1.505,5.35l-0.052,7.017h1.099c0,0-0.029-6.161,1.336-6.78c2.478-1.123,4.643-4.353,4.643-4.353
				s3.254,1.057,5.43,1.237c2.06,0.17,7.283-0.595,7.283-0.595v10.491h1.1l0.274-2.852c0,0,0.338-4.013,1.657-8.152
				c0.309-0.971,0.744-1.918,1.097-2.882c0.717-1.954,0.897-7.742,1.301-8.105l3.127-0.412
				C128.425,152.793,130.309,152.157,129.849,150.457"/>
			<path fill="#7BCCD4" d="M110.96,156.067c0,0.304-0.247,0.55-0.55,0.55c-0.304,0-0.55-0.246-0.55-0.55
				c0-0.303,0.246-0.55,0.55-0.55C110.713,155.517,110.96,155.764,110.96,156.067 M116.445,158.142
				c-0.46-1.7-5.768-3.762-5.88-4.208c-0.111-0.446,0.404-2.173,0.404-2.173c-1.337,0.669-2.006,2.006-2.006,2.006
				c-2.884,0.251-5.147,8.268-6.353,9.112c-1.592,1.114-7.062-0.324-10.338-1.142c-4.173-1.043-4.837,2.376-5.227,1.958
				s-2.124-2.095-3.676-1.271c-2.784,1.477-1.233,4.655-0.447,7.799c0.55,2.2-1.787,3.849-1.787,3.849s2.339-0.04,3.115-0.962
				c1.69-2.006,0.509-4.799,0.871-6.666c0.362-1.867,1.717-1.586,1.717-1.586s-0.167,2.396,0.39,4.681
				c0.557,2.285-1.505,5.35-1.505,5.35l-0.052,7.017h1.099c0,0-0.029-6.162,1.336-6.78c2.478-1.123,4.643-4.353,4.643-4.353
				s3.254,1.057,5.43,1.237c2.06,0.17,7.283-0.595,7.283-0.595v10.491h1.1l0.274-2.852c0,0,0.338-4.013,1.657-8.152
				c0.309-0.971,0.744-1.918,1.097-2.882c0.717-1.954,0.897-7.742,1.301-8.105l3.127-0.412
				C115.021,160.478,116.905,159.842,116.445,158.142"/>
			<path fill="#1CA3AD" d="M97.6,163.695c0,0.304-0.247,0.55-0.55,0.55c-0.304,0-0.55-0.246-0.55-0.55c0-0.303,0.246-0.55,0.55-0.55
				C97.353,163.145,97.6,163.392,97.6,163.695 M103.085,165.77c-0.46-1.7-5.768-3.762-5.88-4.208
				c-0.111-0.446,0.404-2.173,0.404-2.173c-1.337,0.669-2.006,2.006-2.006,2.006c-2.884,0.251-5.147,8.268-6.353,9.112
				c-1.592,1.114-7.062-0.324-10.338-1.142c-4.173-1.043-4.837,2.376-5.227,1.958s-2.124-2.095-3.676-1.271
				c-2.784,1.477-1.233,4.655-0.447,7.799c0.55,2.2-1.787,3.849-1.787,3.849s2.339-0.04,3.115-0.962
				c1.69-2.006,0.509-4.799,0.871-6.666c0.362-1.867,1.717-1.586,1.717-1.586s-0.168,2.396,0.39,4.681
				c0.557,2.285-1.505,5.35-1.505,5.35l-0.052,7.017h1.099c0,0-0.029-6.162,1.336-6.78c2.478-1.123,4.643-4.353,4.643-4.353
				s3.254,1.057,5.43,1.237c2.06,0.17,7.283-0.595,7.283-0.595v10.491h1.1l0.274-2.852c0,0,0.338-4.013,1.657-8.152
				c0.309-0.971,0.744-1.918,1.097-2.882c0.717-1.954,0.897-7.742,1.301-8.105l3.127-0.412
				C101.661,168.106,103.545,167.47,103.085,165.77"/>
			<path fill="#127579" d="M84.32,171.416c0,0.304-0.247,0.55-0.55,0.55c-0.304,0-0.55-0.246-0.55-0.55
				c0-0.303,0.246-0.55,0.55-0.55C84.073,170.866,84.32,171.113,84.32,171.416 M89.805,173.491c-0.46-1.7-5.768-3.762-5.88-4.208
				c-0.111-0.446,0.404-2.173,0.404-2.173c-1.337,0.669-2.006,2.006-2.006,2.006c-2.884,0.251-5.147,8.268-6.353,9.112
				c-1.592,1.114-7.062-0.324-10.338-1.142c-4.173-1.043-4.837,2.376-5.227,1.958s-2.124-2.095-3.676-1.271
				c-2.784,1.477-1.233,4.655-0.447,7.8c0.55,2.199-1.787,3.848-1.787,3.848s2.339-0.04,3.115-0.962
				c1.69-2.006,0.509-4.799,0.871-6.666c0.362-1.867,1.717-1.586,1.717-1.586s-0.167,2.396,0.39,4.681
				c0.557,2.285-1.505,5.35-1.505,5.35l-0.052,7.017h1.099c0,0-0.029-6.161,1.336-6.78c2.478-1.123,4.643-4.353,4.643-4.353
				s3.254,1.057,5.43,1.237c2.06,0.17,7.283-0.595,7.283-0.595v10.491h1.1l0.274-2.852c0,0,0.338-4.013,1.657-8.152
				c0.309-0.971,0.744-1.918,1.097-2.882c0.717-1.954,0.897-7.742,1.301-8.104l3.127-0.413
				C88.381,175.827,90.265,175.191,89.805,173.491"/>
			<path fill="#1CA3AD" d="M142.476,156.067c0,0.304-0.247,0.55-0.55,0.55c-0.304,0-0.55-0.246-0.55-0.55
				c0-0.303,0.246-0.55,0.55-0.55C142.229,155.517,142.476,155.764,142.476,156.067 M147.961,158.142
				c-0.46-1.7-5.768-3.762-5.88-4.208c-0.111-0.446,0.404-2.173,0.404-2.173c-1.337,0.669-2.006,2.006-2.006,2.006
				c-2.884,0.251-5.147,8.268-6.353,9.112c-1.592,1.114-7.062-0.324-10.338-1.142c-4.173-1.043-4.837,2.376-5.227,1.958
				s-2.124-2.095-3.676-1.271c-2.784,1.477-1.233,4.655-0.447,7.799c0.55,2.2-1.787,3.849-1.787,3.849s2.339-0.04,3.115-0.962
				c1.69-2.006,0.509-4.799,0.871-6.666c0.362-1.867,1.717-1.586,1.717-1.586s-0.168,2.396,0.39,4.681
				c0.557,2.285-1.505,5.35-1.505,5.35l-0.052,7.017h1.099c0,0-0.029-6.162,1.336-6.78c2.478-1.123,4.643-4.353,4.643-4.353
				s3.254,1.057,5.43,1.237c2.06,0.17,7.283-0.595,7.283-0.595v10.491h1.1l0.274-2.852c0,0,0.338-4.013,1.657-8.152
				c0.309-0.971,0.744-1.918,1.097-2.882c0.717-1.954,0.897-7.742,1.301-8.105l3.127-0.412
				C146.537,160.478,148.421,159.842,147.961,158.142"/>
			<path fill="#7BCCD4" d="M129.115,163.695c0,0.304-0.247,0.55-0.55,0.55c-0.304,0-0.55-0.246-0.55-0.55
				c0-0.303,0.246-0.55,0.55-0.55C128.868,163.145,129.115,163.392,129.115,163.695 M134.6,165.77c-0.46-1.7-5.768-3.762-5.88-4.208
				c-0.111-0.446,0.404-2.173,0.404-2.173c-1.337,0.669-2.006,2.006-2.006,2.006c-2.884,0.251-5.147,8.268-6.353,9.112
				c-1.592,1.114-7.062-0.324-10.338-1.142c-4.173-1.043-4.837,2.376-5.227,1.958s-2.124-2.095-3.676-1.271
				c-2.784,1.477-1.233,4.655-0.447,7.799c0.55,2.2-1.787,3.849-1.787,3.849s2.339-0.04,3.115-0.962
				c1.69-2.006,0.509-4.799,0.871-6.666c0.362-1.867,1.717-1.586,1.717-1.586s-0.167,2.396,0.39,4.681s-1.505,5.35-1.505,5.35
				l-0.052,7.017h1.099c0,0-0.029-6.162,1.336-6.78c2.478-1.123,4.643-4.353,4.643-4.353s3.254,1.057,5.43,1.237
				c2.06,0.17,7.283-0.595,7.283-0.595v10.491h1.1l0.274-2.852c0,0,0.338-4.013,1.657-8.152c0.309-0.971,0.744-1.918,1.097-2.882
				c0.717-1.954,0.897-7.742,1.301-8.105l3.127-0.412C133.176,168.106,135.06,167.47,134.6,165.77"/>
			<path fill="#127579" d="M115.835,171.416c0,0.304-0.247,0.55-0.55,0.55c-0.304,0-0.55-0.246-0.55-0.55
				c0-0.303,0.246-0.55,0.55-0.55C115.588,170.866,115.835,171.113,115.835,171.416 M121.32,173.491
				c-0.46-1.7-5.768-3.762-5.88-4.208c-0.111-0.446,0.404-2.173,0.404-2.173c-1.337,0.669-2.006,2.006-2.006,2.006
				c-2.884,0.251-5.147,8.268-6.353,9.112c-1.592,1.114-7.062-0.324-10.338-1.142c-4.173-1.043-4.837,2.376-5.227,1.958
				s-2.124-2.095-3.676-1.271c-2.784,1.477-1.233,4.655-0.447,7.8c0.55,2.199-1.787,3.848-1.787,3.848s2.339-0.04,3.115-0.962
				c1.69-2.006,0.509-4.799,0.871-6.666c0.362-1.867,1.717-1.586,1.717-1.586s-0.168,2.396,0.39,4.681
				c0.557,2.285-1.505,5.35-1.505,5.35l-0.052,7.017h1.099c0,0-0.029-6.161,1.336-6.78c2.478-1.123,4.643-4.353,4.643-4.353
				s3.254,1.057,5.43,1.237c2.06,0.17,7.283-0.595,7.283-0.595v10.491h1.1l0.274-2.852c0,0,0.338-4.013,1.657-8.152
				c0.309-0.971,0.744-1.918,1.097-2.882c0.717-1.954,0.897-7.742,1.301-8.104l3.127-0.413
				C119.896,175.827,121.78,175.191,121.32,173.491"/>
			<path fill="#FFFFFF" d="M120.268,124.854c0.175-2.227-0.92-3.71-2.796-3.986c0.272-0.917,0.731-1.995,1.506-2.844l-0.976-0.068
				c-0.777,0.851-1.028,1.947-1.075,2.882c-1.865,0.04-3.132,1.347-3.268,3.554c-0.066,1.09-0.671,1.024-1.551,3.025
				c-1.097,2.493,0.461,5.815,4.131,6.096c0.012,0.001,0.038,0.003,0.066,0.005c0.012,0.001,0.024,0.001,0.036,0.002
				s0.024,0.002,0.036,0.003c0.028,0.002,0.054,0.004,0.066,0.004c3.673,0.233,5.679-2.84,4.94-5.461
				C120.791,125.962,120.182,125.943,120.268,124.854"/>
			<path fill="#FFFFFF" d="M123.134,120.483c-0.956,0.606-3.95,1.377-4.754-1.138C120.432,118.027,122.315,119.138,123.134,120.483"
				/>
			<path fill="#1CA3AD" d="M71.517,125.232c-1.82-0.4-2.987,0.541-3.608,1.154c0.027-1.304,0.192-2.936,0.696-4.628l-1.778,0.3
				c-0.088,0.581-0.104,1.191-0.074,1.801c-0.802-0.939-2.218-1.321-4.411-0.996c0.443,1.608,1.923,2.273,4.494,1.948
				c0.071,0.566,0.175,1.119,0.296,1.632c-0.813-0.352-2.162-0.74-3.655,0.207c-3.549,2.252-1.086,10.95,5.86,9.725
				C76.283,135.15,75.623,126.135,71.517,125.232"/>
		</g>
		<polygon fill="#1CA3AD" points="229.348,147.392 236.869,146.039 229.374,139.751 		"/>
		
			<rect x="240.319" y="118.476" transform="matrix(-0.766 -0.6428 0.6428 -0.766 340.5331 390.2621)" fill="#FFFFFF" width="1.957" height="29.351"/>
		<polygon fill="#FFFFFF" points="245.028,120.079 246.979,119.928 247.427,125.778 253.424,125.319 253.575,127.27 245.628,127.88 
					"/>
		<polygon fill="#FFFFFF" points="248.479,116.269 250.43,116.117 250.878,121.967 256.875,121.508 257.026,123.459 
			249.079,124.069 		"/>
		<polygon fill="#1CA3AD" points="233.831,152.743 241.469,152.984 235.445,145.274 		"/>
		
			<rect x="247.501" y="126.623" transform="matrix(-0.6157 -0.788 0.788 -0.6157 290.1417 424.0915)" fill="#FFFFFF" width="1.957" height="29.351"/>
		<polygon fill="#FFFFFF" points="254.847,129.288 256.787,129.545 256.009,135.36 261.97,136.158 261.713,138.098 253.812,137.043 
					"/>
		<polygon fill="#FFFFFF" points="259.015,126.278 260.955,126.535 260.177,132.35 266.138,133.148 265.881,135.088 257.98,134.033 
					"/>
		<g>
			<path fill="#1CA3AD" d="M199.288,140.622l-3.121,0.273l-0.109-1.248l3.121-0.273l-0.273-3.12l1.248-0.109l0.273,3.12l3.12-0.273
				l0.109,1.248l-3.12,0.273l0.273,3.12l-1.248,0.109L199.288,140.622z M163.357,155.888c0.071,0.407,0.152,0.799,0.239,1.182
				c0.025,0.115,0.053,0.226,0.081,0.339c0.066,0.275,0.136,0.543,0.21,0.805c0.031,0.11,0.061,0.221,0.094,0.329
				c0.096,0.319,0.197,0.631,0.304,0.931c0.011,0.03,0.02,0.062,0.031,0.092c0.119,0.326,0.246,0.638,0.378,0.942
				c0.04,0.091,0.082,0.18,0.123,0.269c0.099,0.216,0.201,0.426,0.306,0.63c0.047,0.092,0.094,0.184,0.143,0.273
				c0.125,0.229,0.254,0.451,0.387,0.665c0.028,0.044,0.053,0.092,0.081,0.136c0.16,0.249,0.326,0.487,0.498,0.717
				c0.054,0.073,0.111,0.143,0.167,0.214c0.124,0.159,0.251,0.313,0.38,0.462c0.066,0.076,0.131,0.15,0.198,0.223
				c0.142,0.154,0.287,0.302,0.435,0.445c0.051,0.049,0.1,0.102,0.151,0.15c0.192,0.179,0.39,0.348,0.592,0.509
				c0.073,0.059,0.148,0.113,0.223,0.169c0.139,0.106,0.281,0.209,0.425,0.307c0.087,0.059,0.175,0.117,0.263,0.174
				c0.148,0.094,0.299,0.183,0.45,0.269c0.079,0.045,0.156,0.092,0.236,0.135c0.217,0.116,0.438,0.224,0.662,0.326
				c0.097,0.043,0.196,0.082,0.294,0.123c0.144,0.06,0.289,0.119,0.437,0.173c0.112,0.042,0.225,0.082,0.339,0.12
				c0.142,0.048,0.287,0.092,0.432,0.134c0.112,0.033,0.223,0.069,0.336,0.099c0.233,0.061,0.468,0.117,0.706,0.166
				c0.128,0.026,0.257,0.048,0.387,0.071c0.135,0.024,0.271,0.048,0.409,0.068c0.141,0.021,0.283,0.04,0.426,0.057
				c0.129,0.016,0.259,0.029,0.389,0.041c0.147,0.014,0.294,0.029,0.442,0.039c0.133,0.009,0.268,0.014,0.402,0.02
				c0.274,0.012,0.55,0.019,0.829,0.019c0.113,0,0.226,0.001,0.34-0.001c0.173-0.003,0.348-0.009,0.523-0.016
				c0.106-0.004,0.214-0.01,0.321-0.016c0.184-0.011,0.367-0.021,0.553-0.036c0.036-0.003,0.072-0.007,0.109-0.01
				c0.416-0.036,0.836-0.084,1.26-0.141c0.079-0.011,0.157-0.021,0.236-0.032c0.204-0.03,0.409-0.062,0.615-0.097
				c0.084-0.014,0.169-0.029,0.254-0.044c0.213-0.037,0.427-0.076,0.642-0.118l0,0c-8.024,26.643,5.374,30.521,15.942,30.29
				l-0.978-4.077c0,0-8.569,2.549-11.491-8.112c-2.187-7.979,16.88-26.78,16.88-26.78s4.931,5.586,6.999,13.725
				c2.408,9.482,5.248,25.099,5.248,25.099l9.758-0.085c0,0,0.664-15.408,7.177-11.598c6.513,3.809,8.663,11.294,8.663,11.294
				l7.867,0.029c0,0-3.59-11.544,1.313-11.205c3.336,0.352,5.16,11.216,5.16,11.216l5.256-0.045
				c1.321-64.761-39.495-66.081-39.495-66.081c-1.374-1.181-3.668-3.472-6.539-5.327l0.079-0.012c0,0-1.577-5.903-2.278-7.152
				c-6.192,0.996-13.003-6.156-18.247-2.505c0.282,0.064,0.547,0.136,0.804,0.211c0.076,0.023,0.149,0.046,0.223,0.07
				c0.184,0.058,0.362,0.119,0.533,0.184c0.068,0.025,0.137,0.05,0.203,0.076c0.223,0.09,0.438,0.182,0.639,0.281
				c0.002,0.001,0.003,0.002,0.005,0.003c0.199,0.099,0.384,0.204,0.562,0.311c0.053,0.033,0.104,0.066,0.155,0.1
				c0.128,0.081,0.249,0.166,0.365,0.252c0.047,0.035,0.095,0.069,0.139,0.104c0.151,0.119,0.294,0.24,0.425,0.366
				c0.003,0.003,0.005,0.006,0.008,0.009c0.129,0.123,0.245,0.251,0.355,0.381c0.035,0.041,0.067,0.082,0.1,0.123
				c0.078,0.099,0.152,0.199,0.221,0.3c0.029,0.042,0.058,0.083,0.085,0.126c0.089,0.139,0.172,0.279,0.244,0.423
				c0.003,0.006,0.005,0.012,0.008,0.018c0.07,0.139,0.131,0.281,0.187,0.423c0.018,0.047,0.034,0.093,0.05,0.14
				c0.039,0.108,0.074,0.218,0.106,0.328c0.013,0.046,0.027,0.092,0.039,0.139c0.038,0.151,0.072,0.302,0.098,0.455l0,0
				c-0.129-0.078-0.264-0.15-0.403-0.219c-0.029-0.014-0.057-0.027-0.086-0.041c-0.127-0.059-0.258-0.115-0.394-0.166
				c-0.019-0.007-0.037-0.015-0.056-0.022c-0.155-0.056-0.316-0.106-0.483-0.149c-0.027-0.007-0.055-0.012-0.082-0.019
				c-0.138-0.033-0.28-0.061-0.425-0.084c-0.046-0.008-0.092-0.015-0.138-0.021c-0.156-0.021-0.317-0.037-0.483-0.045
				c-0.022-0.001-0.043-0.004-0.065-0.005c-0.187-0.007-0.379-0.005-0.577,0.005c-0.051,0.003-0.104,0.008-0.156,0.012
				c-0.154,0.011-0.311,0.028-0.471,0.05c-0.061,0.009-0.121,0.017-0.182,0.027c-0.214,0.035-0.431,0.076-0.656,0.132
				c-3.6,0.89-3.609,5.224-3.609,5.224s1.553-2.929,4.728-2.38c0.14,0.025,0.268,0.062,0.391,0.105
				c0.034,0.012,0.067,0.026,0.101,0.04c0.092,0.037,0.179,0.08,0.261,0.128c0.025,0.014,0.051,0.027,0.075,0.042
				c0.102,0.065,0.196,0.136,0.283,0.215c0.013,0.012,0.025,0.026,0.038,0.039c0.073,0.069,0.141,0.144,0.204,0.223
				c0.019,0.023,0.037,0.047,0.055,0.071c0.062,0.084,0.12,0.172,0.173,0.264c0.007,0.011,0.014,0.021,0.02,0.033
				c0.059,0.105,0.112,0.216,0.159,0.33c0.01,0.023,0.018,0.046,0.028,0.069c0.037,0.094,0.071,0.19,0.102,0.287
				c0.009,0.027,0.018,0.054,0.026,0.081c0.071,0.237,0.125,0.482,0.167,0.726c0.006,0.034,0.011,0.067,0.017,0.1
				c0.015,0.094,0.028,0.188,0.041,0.28c0.004,0.031,0.008,0.061,0.012,0.091c0.014,0.113,0.026,0.224,0.037,0.334
				c0.004,0.047,0.008,0.094,0.013,0.141c0.003,0.038,0.006,0.076,0.01,0.114c-3.825,4.626-5.21,11.644-5.21,11.644
				s-1.07,5.694-5.754,16.536c-0.554,1.282-1.068,2.523-1.55,3.731c-0.658,0.096-1.312,0.132-1.956,0.078
				c-15.036-1.248-2.837-21.861-2.837-21.861s-9.481,8.156-8.065,16.261c0.91,5.207,3.273,8.058,6.436,9.317c0,0,0,0-0.001,0
				c-0.262,0.022-0.525,0.036-0.786,0.04c-0.275,0.001-0.551-0.003-0.824-0.025c-17.563-1.459-3.314-25.535-3.314-25.535
				S161.702,146.421,163.357,155.888"/>
			<g opacity="0.28">
				<g>
					<defs>
						<rect id="SVGID_77_" x="252.49" y="146.602" width="72.805" height="48.795"/>
					</defs>
					<clipPath id="SVGID_26_">
						<use xlink:href="#SVGID_77_"  overflow="visible"/>
					</clipPath>
					<path clip-path="url(#SVGID_26_)" fill="#33AFBB" d="M286.118,194.397c11.024,0,22.059-8.142,15.754-20.955
						c-0.649,7.449-4.159,9.206-5.53,7.713c-1.747-2.285,7.977-11.106-3.096-15.597c1.552,1.535,0.431,12.082-2.366,10.354
						c-3.927-2.813-3.557-13.287-0.661-16.31c-10.767,3.154-5.756,20.659-10.034,20.659c-5.347-2.174,1.94-15.993-5.458-17.242
						c2.25,4.194-0.908,5.438-3.403,10.423C266.276,183.524,271.788,194.397,286.118,194.397"/>
					<path clip-path="url(#SVGID_26_)" fill="#127579" d="M297.928,193.353c6.495,0,12.997-4.797,9.282-12.347
						c-0.382,4.389-2.45,5.425-3.258,4.545c-1.029-1.346,4.7-6.543-1.824-9.189c0.914,0.904,0.254,7.118-1.394,6.1
						c-2.314-1.657-2.096-7.829-0.39-9.61c-6.343,1.859-3.391,12.173-5.912,12.173c-3.15-1.282,1.144-9.424-3.215-10.159
						c1.325,2.471-0.535,3.204-2.005,6.14C286.237,186.947,289.485,193.353,297.928,193.353"/>
					<path clip-path="url(#SVGID_26_)" fill="#124C53" d="M285.135,193.875c4.457,0,8.92-3.292,6.37-8.473
						c-0.262,3.012-1.681,3.722-2.236,3.119c-0.706-0.925,3.226-4.491-1.252-6.307c0.628,0.62,0.175,4.885-0.957,4.186
						c-1.587-1.137-1.438-5.372-0.267-6.595c-4.353,1.276-2.327,8.354-4.057,8.354c-2.162-0.879,0.784-6.467-2.207-6.972
						c0.91,1.696-0.367,2.199-1.376,4.215C277.112,189.478,279.341,193.875,285.135,193.875"/>
				</g>
			</g>
		</g>
	</g>
</g>
</svg>
